<?xml version="1.0" encoding="UTF-8"?>
<svg version="1.1" xmlns="http://www.w3.org/2000/svg" width="423" height="439">
<path d="M0 0 C2.74043441 -0.29691268 5.25533799 -0.39903858 7.99804688 -0.37231445 C8.82417984 -0.37596512 9.65031281 -0.37961578 10.5014801 -0.38337708 C13.24077717 -0.39150372 15.9794866 -0.37785514 18.71875 -0.36328125 C20.61682129 -0.3627629 22.51489311 -0.36327964 24.41296387 -0.36479187 C28.39436844 -0.36470205 32.37557093 -0.35425313 36.35693359 -0.33618164 C41.46853879 -0.31349414 46.57984849 -0.31294934 51.69149017 -0.31969929 C55.61190431 -0.32303571 59.53225068 -0.31641536 63.45265198 -0.30657005 C65.33777004 -0.30271211 67.22289563 -0.30157229 69.10801697 -0.3031559 C71.73947595 -0.30352545 74.37055155 -0.29093756 77.00195312 -0.2746582 C78.17867332 -0.27837433 78.17867332 -0.27837433 79.37916565 -0.28216553 C84.77125913 -0.22874087 84.77125913 -0.22874087 87 2 C87.1953125 5.0390625 87.1953125 5.0390625 87.125 8.625 C87.10695313 9.81351563 87.08890625 11.00203125 87.0703125 12.2265625 C87.04710937 13.14179687 87.02390625 14.05703125 87 15 C87.6705542 14.96447021 88.3411084 14.92894043 89.03198242 14.89233398 C92.08352736 14.73428164 95.13546617 14.58579918 98.1875 14.4375 C99.24259766 14.38142578 100.29769531 14.32535156 101.38476562 14.26757812 C102.40634766 14.21923828 103.42792969 14.17089844 104.48046875 14.12109375 C105.41785889 14.0739624 106.35524902 14.02683105 107.32104492 13.97827148 C110.01302932 14.00010568 112.38516976 14.38413594 115 15 C115.8723412 17.99480917 116.10829766 20.63575911 116.0625 23.75 C116.05347656 24.54921875 116.04445313 25.3484375 116.03515625 26.171875 C116.01775391 27.07679687 116.01775391 27.07679687 116 28 C116.92683594 28.06058594 117.85367187 28.12117188 118.80859375 28.18359375 C120.00613281 28.26738281 121.20367187 28.35117187 122.4375 28.4375 C123.63246094 28.51871094 124.82742188 28.59992187 126.05859375 28.68359375 C129 29 129 29 130 30 C130.08767112 32.07262076 130.10695873 34.14820294 130.09765625 36.22265625 C130.09443359 37.48271484 130.09121094 38.74277344 130.08789062 40.04101562 C130.07953403 41.38151109 130.07106907 42.72200588 130.0625 44.0625 C130.0574866 45.40689942 130.05292342 46.7513006 130.04882812 48.09570312 C130.03699488 51.39717941 130.02050971 54.69856803 130 58 C131.37285156 57.94779297 131.37285156 57.94779297 132.7734375 57.89453125 C133.96195312 57.86746094 135.15046875 57.84039062 136.375 57.8125 C137.55835938 57.77769531 138.74171875 57.74289063 139.9609375 57.70703125 C140.96382813 57.80371094 141.96671875 57.90039062 143 58 C145.28062828 61.42094242 145.21925007 62.68187222 145.125 66.6875 C145.10695313 67.68136719 145.08890625 68.67523438 145.0703125 69.69921875 C145.04710937 70.45847656 145.02390625 71.21773438 145 72 C145.92683594 72.06058594 146.85367187 72.12117188 147.80859375 72.18359375 C149.00613281 72.26738281 150.20367187 72.35117188 151.4375 72.4375 C153.22994141 72.55931641 153.22994141 72.55931641 155.05859375 72.68359375 C158 73 158 73 159 74 C159.09365006 75.7492872 159.11744438 77.50236254 159.11352539 79.25415039 C159.11344986 80.37523697 159.11337433 81.49632355 159.11329651 82.65138245 C159.10813522 83.8711528 159.10297394 85.09092316 159.09765625 86.34765625 C159.09553383 88.2100016 159.09553383 88.2100016 159.09336853 90.10997009 C159.08870591 93.41605491 159.07971497 96.72207146 159.06866455 100.02813721 C159.05844827 103.3996115 159.05387045 106.77109283 159.04882812 110.14257812 C159.03777395 116.76173775 159.02101736 123.38086493 159 130 C159.91523438 129.97679687 160.83046875 129.95359375 161.7734375 129.9296875 C162.96195312 129.91164062 164.15046875 129.89359375 165.375 129.875 C166.55835938 129.85179687 167.74171875 129.82859375 168.9609375 129.8046875 C172 130 172 130 174 132 C174.24609566 133.80783272 174.24609566 133.80783272 174.24050903 136.03689575 C174.24463303 137.30314285 174.24463303 137.30314285 174.24884033 138.5949707 C174.24164978 139.522854 174.23445923 140.4507373 174.22705078 141.40673828 C174.22734283 142.38238739 174.22763489 143.3580365 174.22793579 144.36325073 C174.22653868 147.59902741 174.21095951 150.83457588 174.1953125 154.0703125 C174.19158373 156.30947748 174.18873612 158.54864409 174.18673706 160.78781128 C174.17908992 166.6897632 174.15943215 172.59161714 174.1373291 178.49353027 C174.11689392 184.51260045 174.10774033 190.53168641 174.09765625 196.55078125 C174.07618729 208.36723062 174.04203833 220.18360717 174 232 C174.66 231.67 175.32 231.34 176 231 C180.29754445 230.83782851 183.74293148 231.1485863 188 232 C188 251.14 188 270.28 188 290 C188.99 289.67 189.98 289.34 191 289 C192.70632648 288.90732412 194.41616587 288.87001798 196.125 288.875 C197.01445312 288.87242187 197.90390625 288.86984375 198.8203125 288.8671875 C201 289 201 289 202 290 C202.12322758 291.77903357 202.17789019 293.56286203 202.20532227 295.34594727 C202.22526749 296.4870546 202.24521271 297.62816193 202.26576233 298.80384827 C202.29083107 300.66631447 202.29083107 300.66631447 202.31640625 302.56640625 C202.33718735 303.83016586 202.35796844 305.09392548 202.37937927 306.39598083 C202.43383714 309.76118633 202.4840428 313.12640173 202.53222656 316.49169922 C202.58239759 319.92355901 202.63810655 323.35532831 202.69335938 326.78710938 C202.80070191 333.52466761 202.90244325 340.26229336 203 347 C204.26457031 346.96519531 204.26457031 346.96519531 205.5546875 346.9296875 C206.65039062 346.91164063 207.74609375 346.89359375 208.875 346.875 C209.96554687 346.85179687 211.05609375 346.82859375 212.1796875 346.8046875 C215 347 215 347 217 349 C217.22705078 351.79736328 217.22705078 351.79736328 217.1953125 355.3203125 C217.18886719 356.57714844 217.18242187 357.83398438 217.17578125 359.12890625 C217.15902344 360.44761719 217.14226562 361.76632812 217.125 363.125 C217.11496983 364.46483721 217.10584404 365.80468152 217.09765625 367.14453125 C217.07402075 370.42986573 217.04107234 373.71484465 217 377 C217.88751953 376.87431641 217.88751953 376.87431641 218.79296875 376.74609375 C219.58316406 376.64425781 220.37335938 376.54242188 221.1875 376.4375 C221.96480469 376.33308594 222.74210937 376.22867187 223.54296875 376.12109375 C226 376 226 376 231 377 C231 381.95 231 386.9 231 392 C202.84740635 393.11967645 174.70630251 393.15543556 146.53466797 393.13037109 C140.06321564 393.12468646 133.59180459 393.12804514 127.1203537 393.13382339 C98.73039386 393.15516923 70.37453797 392.97361436 42 392 C42 387.38 42 382.76 42 378 C37.71 378 33.42 378 29 378 C29.0309375 381.1865625 29.0309375 381.1865625 29.0625 384.4375 C29.08373783 386.62499611 29.07258946 388.81360547 29 391 C28 392 28 392 25.67784119 392.12025452 C24.64969803 392.11803391 23.62155487 392.11581329 22.56225586 392.11352539 C21.40112778 392.11344986 20.23999969 392.11337433 19.04368591 392.11329651 C17.14840904 392.10555458 17.14840904 392.10555458 15.21484375 392.09765625 C13.92888809 392.0962413 12.64293243 392.09482635 11.31800842 392.09336853 C7.89356557 392.08954418 4.46916491 392.07971462 1.04473877 392.06866455 C-2.44738189 392.05844864 -5.93950934 392.05387053 -9.43164062 392.04882812 C-16.28777953 392.03809226 -23.1438834 392.02049614 -30 392 C-30.33 387.38 -30.66 382.76 -31 378 C-33.50651042 378.03255208 -36.01302083 378.06510417 -38.51953125 378.09765625 C-41 378 -41 378 -44 377 C-46.02903697 372.94192605 -45.0467948 367.39871123 -45 363 C-49.62 363 -54.24 363 -59 363 C-59.33 353.76 -59.66 344.52 -60 335 C-64.29 334.67 -68.58 334.34 -73 334 C-74.89173694 332.10826306 -74.12895949 329.35596235 -74.13894653 326.83937073 C-74.13591019 325.54409706 -74.13591019 325.54409706 -74.1328125 324.22265625 C-74.13376923 323.34097275 -74.13472595 322.45928925 -74.13571167 321.55088806 C-74.13639359 319.68211801 -74.13453851 317.81334561 -74.13037109 315.94458008 C-74.12502932 313.07823372 -74.13031242 310.21204453 -74.13671875 307.34570312 C-74.13605785 305.53385382 -74.13477643 303.72200461 -74.1328125 301.91015625 C-74.13483673 301.0486647 -74.13686096 300.18717316 -74.13894653 299.29957581 C-74.11495439 293.22990878 -74.11495439 293.22990878 -73 291 C-73.99902344 291.01160156 -74.99804688 291.02320313 -76.02734375 291.03515625 C-77.96287109 291.04869141 -77.96287109 291.04869141 -79.9375 291.0625 C-81.22527344 291.07410156 -82.51304688 291.08570313 -83.83984375 291.09765625 C-87 291 -87 291 -88 290 C-88.07271741 287.64686445 -88.08370868 285.29166332 -88.0625 282.9375 C-88.05347656 281.64714844 -88.04445313 280.35679687 -88.03515625 279.02734375 C-88.02355469 278.02832031 -88.01195313 277.02929688 -88 276 C-89.35158203 276.25716797 -89.35158203 276.25716797 -90.73046875 276.51953125 C-94.8639143 277.12695515 -97.90189952 276.76405263 -102 276 C-103.44207941 273.11584117 -103.09394887 270.58278472 -103.0625 267.375 C-103.05347656 266.18648438 -103.04445312 264.99796875 -103.03515625 263.7734375 C-103.02355469 262.85820312 -103.01195312 261.94296875 -103 261 C-103.66 261.33 -104.32 261.66 -105 262 C-106.8521563 262.09584979 -108.70787153 262.12983606 -110.5625 262.125 C-111.55378906 262.12757813 -112.54507813 262.13015625 -113.56640625 262.1328125 C-116 262 -116 262 -117 261 C-117.23481693 258.81707226 -117.41363323 256.62796826 -117.5625 254.4375 C-117.64628906 253.23996094 -117.73007813 252.04242188 -117.81640625 250.80859375 C-117.87699219 249.88175781 -117.93757813 248.95492187 -118 248 C-118.75925781 248.02320313 -119.51851562 248.04640625 -120.30078125 248.0703125 C-121.29464844 248.08835937 -122.28851563 248.10640625 -123.3125 248.125 C-124.29863281 248.14820313 -125.28476563 248.17140625 -126.30078125 248.1953125 C-129 248 -129 248 -132 246 C-132.29296875 242.9609375 -132.29296875 242.9609375 -132.1875 239.375 C-132.16042969 238.18648437 -132.13335937 236.99796875 -132.10546875 235.7734375 C-132.07066406 234.85820312 -132.03585938 233.94296875 -132 233 C-133.39025391 233.01740234 -133.39025391 233.01740234 -134.80859375 233.03515625 C-136.60490234 233.04869141 -136.60490234 233.04869141 -138.4375 233.0625 C-139.63246094 233.07410156 -140.82742187 233.08570313 -142.05859375 233.09765625 C-145 233 -145 233 -146 232 C-146.23481693 229.81707226 -146.41363323 227.62796826 -146.5625 225.4375 C-146.64628906 224.23996094 -146.73007813 223.04242188 -146.81640625 221.80859375 C-146.87699219 220.88175781 -146.93757813 219.95492187 -147 219 C-147.75925781 219.03480469 -148.51851562 219.06960937 -149.30078125 219.10546875 C-150.29464844 219.13253906 -151.28851563 219.15960938 -152.3125 219.1875 C-153.29863281 219.22230469 -154.28476563 219.25710937 -155.30078125 219.29296875 C-158 219 -158 219 -159.64741516 217.73820496 C-161.30646807 215.60615829 -161.36527466 214.57142189 -161.34057617 211.89575195 C-161.34034958 211.07512772 -161.34012299 210.25450348 -161.33988953 209.40901184 C-161.32440567 208.52767075 -161.30892181 207.64632965 -161.29296875 206.73828125 C-161.28872391 205.83248825 -161.28447906 204.92669525 -161.28010559 203.99345398 C-161.26330848 201.09950067 -161.2256545 198.20624294 -161.1875 195.3125 C-161.17245449 193.35092151 -161.15876585 191.38933211 -161.14648438 189.42773438 C-161.11340157 184.61822144 -161.06161222 179.80922867 -161 175 C-155.26990397 172.97964123 -151.95224257 173.09814507 -146 174 C-146 169.38 -146 164.76 -146 160 C-141.77971101 157.8898555 -136.42006486 158.75128213 -132 160 C-132.01160156 159.00097656 -132.02320313 158.00195312 -132.03515625 156.97265625 C-132.04417969 155.68230469 -132.05320312 154.39195312 -132.0625 153.0625 C-132.07410156 151.77472656 -132.08570313 150.48695313 -132.09765625 149.16015625 C-132 146 -132 146 -131 145 C-127.89934814 144.83959844 -124.81794283 144.74029098 -121.71484375 144.68359375 C-120.8902063 144.66494263 -120.06556885 144.6462915 -119.21594238 144.6270752 C-116.12324154 144.55856286 -113.03035712 144.49855149 -109.9375 144.4375 C-103.028125 144.293125 -96.11875 144.14875 -89 144 C-88.67 120.57 -88.34 97.14 -88 73 C-83.81537205 70.90768602 -78.67855628 72 -74 72 C-74 63.09 -74 54.18 -74 45 C-69.80866878 42.90433439 -68.68835147 42.84662483 -64.25 43.375 C-63.26515625 43.48585937 -62.2803125 43.59671875 -61.265625 43.7109375 C-60.51796875 43.80632812 -59.7703125 43.90171875 -59 44 C-59.16242188 43.4121875 -59.32484375 42.824375 -59.4921875 42.21875 C-60.54015061 37.63995734 -60.1289165 33.51566599 -59 29 C-49.76 28.67 -40.52 28.34 -31 28 C-31 24.37 -31 20.74 -31 17 C-30.01 15.515 -30.01 15.515 -29 14 C-26.29443359 13.65942383 -26.29443359 13.65942383 -22.8984375 13.70703125 C-21.68671875 13.71669922 -20.475 13.72636719 -19.2265625 13.73632812 C-17.95554688 13.76146484 -16.68453125 13.78660156 -15.375 13.8125 C-14.09625 13.82603516 -12.8175 13.83957031 -11.5 13.85351562 C-8.33291718 13.88896804 -5.16666459 13.93838559 -2 14 C-2.02320313 13.24074219 -2.04640625 12.48148438 -2.0703125 11.69921875 C-2.08835938 10.70535156 -2.10640625 9.71148437 -2.125 8.6875 C-2.14820313 7.70136719 -2.17140625 6.71523438 -2.1953125 5.69921875 C-2 3 -2 3 0 0 Z " fill="#FEFEFE" transform="translate(183,32)"/>
<path d="M0 0 C2.74043441 -0.29691268 5.25533799 -0.39903858 7.99804688 -0.37231445 C8.82417984 -0.37596512 9.65031281 -0.37961578 10.5014801 -0.38337708 C13.24077717 -0.39150372 15.9794866 -0.37785514 18.71875 -0.36328125 C20.61682129 -0.3627629 22.51489311 -0.36327964 24.41296387 -0.36479187 C28.39436844 -0.36470205 32.37557093 -0.35425313 36.35693359 -0.33618164 C41.46853879 -0.31349414 46.57984849 -0.31294934 51.69149017 -0.31969929 C55.61190431 -0.32303571 59.53225068 -0.31641536 63.45265198 -0.30657005 C65.33777004 -0.30271211 67.22289563 -0.30157229 69.10801697 -0.3031559 C71.73947595 -0.30352545 74.37055155 -0.29093756 77.00195312 -0.2746582 C78.17867332 -0.27837433 78.17867332 -0.27837433 79.37916565 -0.28216553 C84.77125913 -0.22874087 84.77125913 -0.22874087 87 2 C87.1953125 5.0390625 87.1953125 5.0390625 87.125 8.625 C87.10695313 9.81351563 87.08890625 11.00203125 87.0703125 12.2265625 C87.04710937 13.14179687 87.02390625 14.05703125 87 15 C87.6705542 14.96447021 88.3411084 14.92894043 89.03198242 14.89233398 C92.08352736 14.73428164 95.13546617 14.58579918 98.1875 14.4375 C99.24259766 14.38142578 100.29769531 14.32535156 101.38476562 14.26757812 C102.40634766 14.21923828 103.42792969 14.17089844 104.48046875 14.12109375 C105.41785889 14.0739624 106.35524902 14.02683105 107.32104492 13.97827148 C110.01302932 14.00010568 112.38516976 14.38413594 115 15 C115.8723412 17.99480917 116.10829766 20.63575911 116.0625 23.75 C116.05347656 24.54921875 116.04445313 25.3484375 116.03515625 26.171875 C116.01775391 27.07679687 116.01775391 27.07679687 116 28 C116.92683594 28.06058594 117.85367188 28.12117188 118.80859375 28.18359375 C120.00613281 28.26738281 121.20367187 28.35117187 122.4375 28.4375 C123.63246094 28.51871094 124.82742188 28.59992187 126.05859375 28.68359375 C129 29 129 29 130 30 C130.08767112 32.07262076 130.10695873 34.14820294 130.09765625 36.22265625 C130.09443359 37.48271484 130.09121094 38.74277344 130.08789062 40.04101562 C130.07953403 41.38151109 130.07106907 42.72200588 130.0625 44.0625 C130.0574866 45.40689942 130.05292342 46.7513006 130.04882812 48.09570312 C130.03699488 51.39717941 130.02050971 54.69856803 130 58 C131.37285156 57.94779297 131.37285156 57.94779297 132.7734375 57.89453125 C133.96195313 57.86746094 135.15046875 57.84039062 136.375 57.8125 C137.55835938 57.77769531 138.74171875 57.74289063 139.9609375 57.70703125 C140.96382812 57.80371094 141.96671875 57.90039062 143 58 C145.28062828 61.42094242 145.21925007 62.68187222 145.125 66.6875 C145.10695313 67.68136719 145.08890625 68.67523438 145.0703125 69.69921875 C145.04710937 70.45847656 145.02390625 71.21773438 145 72 C145.92683594 72.06058594 146.85367188 72.12117188 147.80859375 72.18359375 C149.60490234 72.30927734 149.60490234 72.30927734 151.4375 72.4375 C153.22994141 72.55931641 153.22994141 72.55931641 155.05859375 72.68359375 C158 73 158 73 159 74 C159.09365006 75.7492872 159.11744438 77.50236254 159.11352539 79.25415039 C159.11344986 80.37523697 159.11337433 81.49632355 159.11329651 82.65138245 C159.10813522 83.8711528 159.10297394 85.09092316 159.09765625 86.34765625 C159.09553383 88.2100016 159.09553383 88.2100016 159.09336853 90.10997009 C159.08870591 93.41605491 159.07971497 96.72207146 159.06866455 100.02813721 C159.05844827 103.3996115 159.05387045 106.77109283 159.04882812 110.14257812 C159.03777395 116.76173775 159.02101736 123.38086493 159 130 C159.91523438 129.97679687 160.83046875 129.95359375 161.7734375 129.9296875 C162.96195313 129.91164062 164.15046875 129.89359375 165.375 129.875 C166.55835938 129.85179687 167.74171875 129.82859375 168.9609375 129.8046875 C172 130 172 130 174 132 C174.24609566 133.80783272 174.24609566 133.80783272 174.24050903 136.03689575 C174.24463303 137.30314285 174.24463303 137.30314285 174.24884033 138.5949707 C174.24164978 139.522854 174.23445923 140.4507373 174.22705078 141.40673828 C174.22734283 142.38238739 174.22763489 143.3580365 174.22793579 144.36325073 C174.22653868 147.59902741 174.21095951 150.83457588 174.1953125 154.0703125 C174.19158373 156.30947748 174.18873612 158.54864409 174.18673706 160.78781128 C174.17908992 166.6897632 174.15943215 172.59161714 174.1373291 178.49353027 C174.11689392 184.51260045 174.10774033 190.53168641 174.09765625 196.55078125 C174.07618729 208.36723062 174.04203833 220.18360717 174 232 C174.66 231.67 175.32 231.34 176 231 C180.29754445 230.83782851 183.74293148 231.1485863 188 232 C188 251.14 188 270.28 188 290 C188.99 289.67 189.98 289.34 191 289 C192.70632648 288.90732412 194.41616587 288.87001798 196.125 288.875 C197.01445312 288.87242187 197.90390625 288.86984375 198.8203125 288.8671875 C201 289 201 289 202 290 C202.12322758 291.77903357 202.17789019 293.56286203 202.20532227 295.34594727 C202.22526749 296.4870546 202.24521271 297.62816193 202.26576233 298.80384827 C202.29083107 300.66631447 202.29083107 300.66631447 202.31640625 302.56640625 C202.33718735 303.83016586 202.35796844 305.09392548 202.37937927 306.39598083 C202.43383714 309.76118633 202.4840428 313.12640173 202.53222656 316.49169922 C202.58239759 319.92355901 202.63810655 323.35532831 202.69335938 326.78710938 C202.80070191 333.52466761 202.90244325 340.26229336 203 347 C204.26457031 346.96519531 204.26457031 346.96519531 205.5546875 346.9296875 C206.65039062 346.91164063 207.74609375 346.89359375 208.875 346.875 C209.96554687 346.85179687 211.05609375 346.82859375 212.1796875 346.8046875 C215 347 215 347 217 349 C217.22705078 351.79736328 217.22705078 351.79736328 217.1953125 355.3203125 C217.18886719 356.57714844 217.18242187 357.83398438 217.17578125 359.12890625 C217.15902344 360.44761719 217.14226562 361.76632812 217.125 363.125 C217.11496983 364.46483721 217.10584404 365.80468152 217.09765625 367.14453125 C217.07402075 370.42986573 217.04107234 373.71484465 217 377 C217.88751953 376.87431641 217.88751953 376.87431641 218.79296875 376.74609375 C219.58316406 376.64425781 220.37335938 376.54242188 221.1875 376.4375 C221.96480469 376.33308594 222.74210937 376.22867187 223.54296875 376.12109375 C226 376 226 376 231 377 C231 381.95 231 386.9 231 392 C202.84740635 393.11967645 174.70630251 393.15543556 146.53466797 393.13037109 C140.06321564 393.12468646 133.59180459 393.12804514 127.1203537 393.13382339 C98.73039386 393.15516923 70.37453797 392.97361436 42 392 C42 387.38 42 382.76 42 378 C37.71 378 33.42 378 29 378 C29.020625 380.124375 29.04125 382.24875 29.0625 384.4375 C29.08373783 386.62499611 29.07258946 388.81360547 29 391 C28 392 28 392 25.67784119 392.12025452 C24.13562645 392.1169236 24.13562645 392.1169236 22.56225586 392.11352539 C21.40112778 392.11344986 20.23999969 392.11337433 19.04368591 392.11329651 C17.14840904 392.10555458 17.14840904 392.10555458 15.21484375 392.09765625 C13.92888809 392.0962413 12.64293243 392.09482635 11.31800842 392.09336853 C7.89356557 392.08954418 4.46916491 392.07971462 1.04473877 392.06866455 C-2.44738189 392.05844864 -5.93950934 392.05387053 -9.43164062 392.04882812 C-16.28777953 392.03809226 -23.1438834 392.02049614 -30 392 C-30.33 387.38 -30.66 382.76 -31 378 C-33.50651042 378.03255208 -36.01302083 378.06510417 -38.51953125 378.09765625 C-41 378 -41 378 -44 377 C-46.02903697 372.94192605 -45.0467948 367.39871123 -45 363 C-49.62 363 -54.24 363 -59 363 C-59.495 349.14 -59.495 349.14 -60 335 C-64.29 334.67 -68.58 334.34 -73 334 C-74.89173694 332.10826306 -74.12895949 329.35596235 -74.13894653 326.83937073 C-74.1369223 325.97585495 -74.13489807 325.11233917 -74.1328125 324.22265625 C-74.13376923 323.34097275 -74.13472595 322.45928925 -74.13571167 321.55088806 C-74.13639359 319.68211801 -74.13453851 317.81334561 -74.13037109 315.94458008 C-74.12502932 313.07823372 -74.13031242 310.21204453 -74.13671875 307.34570312 C-74.13605785 305.53385382 -74.13477643 303.72200461 -74.1328125 301.91015625 C-74.13483673 301.0486647 -74.13686096 300.18717316 -74.13894653 299.29957581 C-74.11495439 293.22990878 -74.11495439 293.22990878 -73 291 C-73.99902344 291.01160156 -74.99804688 291.02320313 -76.02734375 291.03515625 C-77.96287109 291.04869141 -77.96287109 291.04869141 -79.9375 291.0625 C-81.22527344 291.07410156 -82.51304688 291.08570313 -83.83984375 291.09765625 C-87 291 -87 291 -88 290 C-88.0641568 288.21915814 -88.05696992 286.43570137 -88.02172852 284.65405273 C-88.00163223 283.5129454 -87.98153595 282.37183807 -87.96083069 281.19615173 C-87.93379562 279.9545076 -87.90676056 278.71286346 -87.87890625 277.43359375 C-87.85529526 276.16983414 -87.83168427 274.90607452 -87.80735779 273.60401917 C-87.74357226 270.23868638 -87.67538507 266.8735002 -87.60510254 263.50830078 C-87.53450157 260.07656782 -87.4696354 256.6447271 -87.40429688 253.21289062 C-87.2748424 246.47514545 -87.13905841 239.73755353 -87 233 C-82.38 233 -77.76 233 -73 233 C-73 251.81 -73 270.62 -73 290 C-68.38 290 -63.76 290 -59 290 C-59 304.52 -59 319.04 -59 334 C-54.05 334 -49.1 334 -44 334 C-44 343.57 -44 353.14 -44 363 C-39.38 363 -34.76 363 -30 363 C-30 367.62 -30 372.24 -30 377 C-10.86 377 8.28 377 28 377 C28 372.38 28 367.76 28 363 C70.9 363 113.8 363 158 363 C158 348.48 158 333.96 158 319 C153.38 319 148.76 319 144 319 C144 299.86 144 280.72 144 261 C139.05 261 134.1 261 129 261 C129.16371094 262.85753906 129.32742188 264.71507812 129.49609375 266.62890625 C130.41176013 279.02757262 130.11064731 291.49382993 130.06866455 303.91656494 C130.05829475 307.31611504 130.05383814 310.7156729 130.04882812 314.11523438 C130.03789424 320.74351196 130.02068048 327.37174595 130 334 C125.05 334 120.1 334 115 334 C115 324.43 115 314.86 115 305 C110.05 305 105.1 305 100 305 C100 285.86 100 266.72 100 247 C95.38 247 90.76 247 86 247 C86 251.62 86 256.24 86 261 C81.05 261 76.1 261 71 261 C71 256.38 71 251.76 71 247 C66.38 247 61.76 247 57 247 C57 242.05 57 237.1 57 232 C52.05 232 47.1 232 42 232 C42 227.38 42 222.76 42 218 C37.38 218 32.76 218 28 218 C28 203.48 28 188.96 28 174 C32.62 174 37.24 174 42 174 C42 169.38 42 164.76 42 160 C46.95 160 51.9 160 57 160 C57 155.05 57 150.1 57 145 C76.14 145 95.28 145 115 145 C115 130.81 115 116.62 115 102 C110.05 102 105.1 102 100 102 C100 87.81 100 73.62 100 59 C95.38 59 90.76 59 86 59 C86 54.05 86 49.1 86 44 C71.81 44 57.62 44 43 44 C43 39.38 43 34.76 43 30 C18.91 30 -5.18 30 -30 30 C-30 34.62 -30 39.24 -30 44 C-39.57 44 -49.14 44 -59 44 C-60.34052853 38.6378859 -60.34052853 34.3621141 -59 29 C-49.76 28.67 -40.52 28.34 -31 28 C-31 24.37 -31 20.74 -31 17 C-30.34 16.01 -29.68 15.02 -29 14 C-26.29443359 13.65942383 -26.29443359 13.65942383 -22.8984375 13.70703125 C-21.68671875 13.71669922 -20.475 13.72636719 -19.2265625 13.73632812 C-17.95554687 13.76146484 -16.68453125 13.78660156 -15.375 13.8125 C-14.09625 13.82603516 -12.8175 13.83957031 -11.5 13.85351562 C-8.33291718 13.88896804 -5.16666459 13.93838559 -2 14 C-2.02320313 13.24074219 -2.04640625 12.48148438 -2.0703125 11.69921875 C-2.08835937 10.70535156 -2.10640625 9.71148437 -2.125 8.6875 C-2.14820313 7.70136719 -2.17140625 6.71523438 -2.1953125 5.69921875 C-2 3 -2 3 0 0 Z " fill="#C2C2C2" transform="translate(183,32)"/>
<path d="M0 0 C2.74043441 -0.29691268 5.25533799 -0.39903858 7.99804688 -0.37231445 C8.82417984 -0.37596512 9.65031281 -0.37961578 10.5014801 -0.38337708 C13.24077717 -0.39150372 15.9794866 -0.37785514 18.71875 -0.36328125 C20.61682129 -0.3627629 22.51489311 -0.36327964 24.41296387 -0.36479187 C28.39436844 -0.36470205 32.37557093 -0.35425313 36.35693359 -0.33618164 C41.46853879 -0.31349414 46.57984849 -0.31294934 51.69149017 -0.31969929 C55.61190431 -0.32303571 59.53225068 -0.31641536 63.45265198 -0.30657005 C65.33777004 -0.30271211 67.22289563 -0.30157229 69.10801697 -0.3031559 C71.73947595 -0.30352545 74.37055155 -0.29093756 77.00195312 -0.2746582 C78.17867332 -0.27837433 78.17867332 -0.27837433 79.37916565 -0.28216553 C84.77125913 -0.22874087 84.77125913 -0.22874087 87 2 C87.1953125 5.0390625 87.1953125 5.0390625 87.125 8.625 C87.10695313 9.81351563 87.08890625 11.00203125 87.0703125 12.2265625 C87.04710937 13.14179687 87.02390625 14.05703125 87 15 C87.6705542 14.96447021 88.3411084 14.92894043 89.03198242 14.89233398 C92.08352736 14.73428164 95.13546617 14.58579918 98.1875 14.4375 C99.24259766 14.38142578 100.29769531 14.32535156 101.38476562 14.26757812 C102.40634766 14.21923828 103.42792969 14.17089844 104.48046875 14.12109375 C105.41785889 14.0739624 106.35524902 14.02683105 107.32104492 13.97827148 C110.01302932 14.00010568 112.38516976 14.38413594 115 15 C115.8723412 17.99480917 116.10829766 20.63575911 116.0625 23.75 C116.05347656 24.54921875 116.04445313 25.3484375 116.03515625 26.171875 C116.01775391 27.07679687 116.01775391 27.07679687 116 28 C116.92683594 28.06058594 117.85367188 28.12117188 118.80859375 28.18359375 C120.00613281 28.26738281 121.20367187 28.35117187 122.4375 28.4375 C123.63246094 28.51871094 124.82742188 28.59992187 126.05859375 28.68359375 C129 29 129 29 130 30 C130.08767112 32.07262076 130.10695873 34.14820294 130.09765625 36.22265625 C130.09443359 37.48271484 130.09121094 38.74277344 130.08789062 40.04101562 C130.07953403 41.38151109 130.07106907 42.72200588 130.0625 44.0625 C130.0574866 45.40689942 130.05292342 46.7513006 130.04882812 48.09570312 C130.03699488 51.39717941 130.02050971 54.69856803 130 58 C131.37285156 57.94779297 131.37285156 57.94779297 132.7734375 57.89453125 C133.96195313 57.86746094 135.15046875 57.84039062 136.375 57.8125 C137.55835938 57.77769531 138.74171875 57.74289063 139.9609375 57.70703125 C140.96382812 57.80371094 141.96671875 57.90039062 143 58 C145.28062828 61.42094242 145.21925007 62.68187222 145.125 66.6875 C145.10695313 67.68136719 145.08890625 68.67523438 145.0703125 69.69921875 C145.04710937 70.45847656 145.02390625 71.21773438 145 72 C145.92683594 72.06058594 146.85367188 72.12117188 147.80859375 72.18359375 C149.60490234 72.30927734 149.60490234 72.30927734 151.4375 72.4375 C153.22994141 72.55931641 153.22994141 72.55931641 155.05859375 72.68359375 C158 73 158 73 159 74 C159.09365006 75.7492872 159.11744438 77.50236254 159.11352539 79.25415039 C159.11344986 80.37523697 159.11337433 81.49632355 159.11329651 82.65138245 C159.10813522 83.8711528 159.10297394 85.09092316 159.09765625 86.34765625 C159.09553383 88.2100016 159.09553383 88.2100016 159.09336853 90.10997009 C159.08870591 93.41605491 159.07971497 96.72207146 159.06866455 100.02813721 C159.05844827 103.3996115 159.05387045 106.77109283 159.04882812 110.14257812 C159.03777395 116.76173775 159.02101736 123.38086493 159 130 C159.91523438 129.97679687 160.83046875 129.95359375 161.7734375 129.9296875 C162.96195313 129.91164062 164.15046875 129.89359375 165.375 129.875 C166.55835938 129.85179687 167.74171875 129.82859375 168.9609375 129.8046875 C172 130 172 130 174 132 C174.24609566 133.80783272 174.24609566 133.80783272 174.24050903 136.03689575 C174.24463303 137.30314285 174.24463303 137.30314285 174.24884033 138.5949707 C174.24164978 139.522854 174.23445923 140.4507373 174.22705078 141.40673828 C174.22734283 142.38238739 174.22763489 143.3580365 174.22793579 144.36325073 C174.22653868 147.59902741 174.21095951 150.83457588 174.1953125 154.0703125 C174.19158373 156.30947748 174.18873612 158.54864409 174.18673706 160.78781128 C174.17908992 166.6897632 174.15943215 172.59161714 174.1373291 178.49353027 C174.11689392 184.51260045 174.10774033 190.53168641 174.09765625 196.55078125 C174.07618729 208.36723062 174.04203833 220.18360717 174 232 C174.66 231.67 175.32 231.34 176 231 C180.29754445 230.83782851 183.74293148 231.1485863 188 232 C188 251.14 188 270.28 188 290 C188.99 289.67 189.98 289.34 191 289 C192.70632648 288.90732412 194.41616587 288.87001798 196.125 288.875 C197.01445312 288.87242187 197.90390625 288.86984375 198.8203125 288.8671875 C201 289 201 289 202 290 C202.12322758 291.77903357 202.17789019 293.56286203 202.20532227 295.34594727 C202.22526749 296.4870546 202.24521271 297.62816193 202.26576233 298.80384827 C202.29083107 300.66631447 202.29083107 300.66631447 202.31640625 302.56640625 C202.33718735 303.83016586 202.35796844 305.09392548 202.37937927 306.39598083 C202.43383714 309.76118633 202.4840428 313.12640173 202.53222656 316.49169922 C202.58239759 319.92355901 202.63810655 323.35532831 202.69335938 326.78710938 C202.80070191 333.52466761 202.90244325 340.26229336 203 347 C204.26457031 346.96519531 204.26457031 346.96519531 205.5546875 346.9296875 C206.65039062 346.91164063 207.74609375 346.89359375 208.875 346.875 C209.96554687 346.85179687 211.05609375 346.82859375 212.1796875 346.8046875 C215 347 215 347 217 349 C217.22705078 351.79736328 217.22705078 351.79736328 217.1953125 355.3203125 C217.18886719 356.57714844 217.18242187 357.83398438 217.17578125 359.12890625 C217.15902344 360.44761719 217.14226562 361.76632812 217.125 363.125 C217.11496983 364.46483721 217.10584404 365.80468152 217.09765625 367.14453125 C217.07402075 370.42986573 217.04107234 373.71484465 217 377 C217.88751953 376.87431641 217.88751953 376.87431641 218.79296875 376.74609375 C219.58316406 376.64425781 220.37335938 376.54242188 221.1875 376.4375 C221.96480469 376.33308594 222.74210937 376.22867187 223.54296875 376.12109375 C226 376 226 376 231 377 C231 381.95 231 386.9 231 392 C202.84740635 393.11967645 174.70630251 393.15543556 146.53466797 393.13037109 C140.06321564 393.12468646 133.59180459 393.12804514 127.1203537 393.13382339 C98.73039386 393.15516923 70.37453797 392.97361436 42 392 C42 387.38 42 382.76 42 378 C37.71 378 33.42 378 29 378 C29.020625 380.124375 29.04125 382.24875 29.0625 384.4375 C29.08373783 386.62499611 29.07258946 388.81360547 29 391 C28 392 28 392 25.67784119 392.12025452 C24.13562645 392.1169236 24.13562645 392.1169236 22.56225586 392.11352539 C21.40112778 392.11344986 20.23999969 392.11337433 19.04368591 392.11329651 C17.14840904 392.10555458 17.14840904 392.10555458 15.21484375 392.09765625 C13.92888809 392.0962413 12.64293243 392.09482635 11.31800842 392.09336853 C7.89356557 392.08954418 4.46916491 392.07971462 1.04473877 392.06866455 C-2.44738189 392.05844864 -5.93950934 392.05387053 -9.43164062 392.04882812 C-16.28777953 392.03809226 -23.1438834 392.02049614 -30 392 C-30.33 387.38 -30.66 382.76 -31 378 C-33.50651042 378.03255208 -36.01302083 378.06510417 -38.51953125 378.09765625 C-41 378 -41 378 -44 377 C-46.02903697 372.94192605 -45.0467948 367.39871123 -45 363 C-49.62 363 -54.24 363 -59 363 C-59.495 349.14 -59.495 349.14 -60 335 C-64.29 334.67 -68.58 334.34 -73 334 C-74.89173694 332.10826306 -74.12895949 329.35596235 -74.13894653 326.83937073 C-74.1369223 325.97585495 -74.13489807 325.11233917 -74.1328125 324.22265625 C-74.13376923 323.34097275 -74.13472595 322.45928925 -74.13571167 321.55088806 C-74.13639359 319.68211801 -74.13453851 317.81334561 -74.13037109 315.94458008 C-74.12502932 313.07823372 -74.13031242 310.21204453 -74.13671875 307.34570312 C-74.13605785 305.53385382 -74.13477643 303.72200461 -74.1328125 301.91015625 C-74.13483673 301.0486647 -74.13686096 300.18717316 -74.13894653 299.29957581 C-74.11495439 293.22990878 -74.11495439 293.22990878 -73 291 C-73.99902344 291.01160156 -74.99804688 291.02320313 -76.02734375 291.03515625 C-77.96287109 291.04869141 -77.96287109 291.04869141 -79.9375 291.0625 C-81.22527344 291.07410156 -82.51304688 291.08570313 -83.83984375 291.09765625 C-87 291 -87 291 -88 290 C-88.0641568 288.21915814 -88.05696992 286.43570137 -88.02172852 284.65405273 C-88.00163223 283.5129454 -87.98153595 282.37183807 -87.96083069 281.19615173 C-87.93379562 279.9545076 -87.90676056 278.71286346 -87.87890625 277.43359375 C-87.85529526 276.16983414 -87.83168427 274.90607452 -87.80735779 273.60401917 C-87.74357226 270.23868638 -87.67538507 266.8735002 -87.60510254 263.50830078 C-87.53450157 260.07656782 -87.4696354 256.6447271 -87.40429688 253.21289062 C-87.2748424 246.47514545 -87.13905841 239.73755353 -87 233 C-82.38 233 -77.76 233 -73 233 C-73 251.81 -73 270.62 -73 290 C-68.38 290 -63.76 290 -59 290 C-59 304.52 -59 319.04 -59 334 C-54.05 334 -49.1 334 -44 334 C-44 343.57 -44 353.14 -44 363 C-39.38 363 -34.76 363 -30 363 C-30 367.62 -30 372.24 -30 377 C-10.86 377 8.28 377 28 377 C28 372.38 28 367.76 28 363 C32.95 363 37.9 363 43 363 C43 367.62 43 372.24 43 377 C95.47 377 147.94 377 202 377 C202 367.43 202 357.86 202 348 C197.05 348 192.1 348 187 348 C187 328.86 187 309.72 187 290 C182.38 290 177.76 290 173 290 C173 270.86 173 251.72 173 232 C168.05 232 163.1 232 158 232 C158 198.67 158 165.34 158 131 C153.38 131 148.76 131 144 131 C144 111.86 144 92.72 144 73 C139.05 73 134.1 73 129 73 C129 68.38 129 63.76 129 59 C124.38 59 119.76 59 115 59 C115 49.43 115 39.86 115 30 C105.43 30 95.86 30 86 30 C86 25.05 86 20.1 86 15 C57.29 15 28.58 15 -1 15 C-1 19.95 -1 24.9 -1 30 C-10.57 30 -20.14 30 -30 30 C-30 34.62 -30 39.24 -30 44 C-39.57 44 -49.14 44 -59 44 C-60.34052853 38.6378859 -60.34052853 34.3621141 -59 29 C-49.76 28.67 -40.52 28.34 -31 28 C-31 24.37 -31 20.74 -31 17 C-30.34 16.01 -29.68 15.02 -29 14 C-26.29443359 13.65942383 -26.29443359 13.65942383 -22.8984375 13.70703125 C-21.68671875 13.71669922 -20.475 13.72636719 -19.2265625 13.73632812 C-17.95554687 13.76146484 -16.68453125 13.78660156 -15.375 13.8125 C-14.09625 13.82603516 -12.8175 13.83957031 -11.5 13.85351562 C-8.33291718 13.88896804 -5.16666459 13.93838559 -2 14 C-2.02320313 13.24074219 -2.04640625 12.48148438 -2.0703125 11.69921875 C-2.08835937 10.70535156 -2.10640625 9.71148437 -2.125 8.6875 C-2.14820313 7.70136719 -2.17140625 6.71523438 -2.1953125 5.69921875 C-2 3 -2 3 0 0 Z " fill="#3A3A3A" transform="translate(183,32)"/>
<path d="M0 0 C3.28799432 0.03179878 5.85841383 0.52168277 9.1875 1.1875 C9.1875 10.7575 9.1875 20.3275 9.1875 30.1875 C4.5675 30.1875 -0.0525 30.1875 -4.8125 30.1875 C-4.8125 58.8975 -4.8125 87.6075 -4.8125 117.1875 C-23.9525 117.1875 -43.0925 117.1875 -62.8125 117.1875 C-62.8125 122.1375 -62.8125 127.0875 -62.8125 132.1875 C-67.4325 132.1875 -72.0525 132.1875 -76.8125 132.1875 C-76.8125 146.3775 -76.8125 160.5675 -76.8125 175.1875 C-58.0025 175.1875 -39.1925 175.1875 -19.8125 175.1875 C-19.8125 179.8075 -19.8125 184.4275 -19.8125 189.1875 C-29.3825 189.1875 -38.9525 189.1875 -48.8125 189.1875 C-48.8125 194.1375 -48.8125 199.0875 -48.8125 204.1875 C-43.8625 204.1875 -38.9125 204.1875 -33.8125 204.1875 C-33.8125 213.0975 -33.8125 222.0075 -33.8125 231.1875 C-34.1425 231.1875 -34.4725 231.1875 -34.8125 231.1875 C-34.8125 226.8975 -34.8125 222.6075 -34.8125 218.1875 C-35.4725 218.5175 -36.1325 218.8475 -36.8125 219.1875 C-38.6646563 219.28334979 -40.52037153 219.31733606 -42.375 219.3125 C-43.36628906 219.31507813 -44.35757813 219.31765625 -45.37890625 219.3203125 C-47.8125 219.1875 -47.8125 219.1875 -48.8125 218.1875 C-49.04731693 216.00457226 -49.22613323 213.81546826 -49.375 211.625 C-49.45878906 210.42746094 -49.54257813 209.22992188 -49.62890625 207.99609375 C-49.68949219 207.06925781 -49.75007813 206.14242187 -49.8125 205.1875 C-50.57175781 205.21070313 -51.33101562 205.23390625 -52.11328125 205.2578125 C-53.10714844 205.27585937 -54.10101563 205.29390625 -55.125 205.3125 C-56.11113281 205.33570313 -57.09726562 205.35890625 -58.11328125 205.3828125 C-60.8125 205.1875 -60.8125 205.1875 -63.8125 203.1875 C-64.10546875 200.1484375 -64.10546875 200.1484375 -64 196.5625 C-63.97292969 195.37398437 -63.94585937 194.18546875 -63.91796875 192.9609375 C-63.88316406 192.04570312 -63.84835938 191.13046875 -63.8125 190.1875 C-65.20275391 190.20490234 -65.20275391 190.20490234 -66.62109375 190.22265625 C-68.41740234 190.23619141 -68.41740234 190.23619141 -70.25 190.25 C-71.44496094 190.26160156 -72.63992187 190.27320313 -73.87109375 190.28515625 C-76.8125 190.1875 -76.8125 190.1875 -77.8125 189.1875 C-78.04731693 187.00457226 -78.22613323 184.81546826 -78.375 182.625 C-78.45878906 181.42746094 -78.54257813 180.22992188 -78.62890625 178.99609375 C-78.68949219 178.06925781 -78.75007813 177.14242187 -78.8125 176.1875 C-79.57175781 176.22230469 -80.33101562 176.25710937 -81.11328125 176.29296875 C-82.10714844 176.32003906 -83.10101563 176.34710938 -84.125 176.375 C-85.11113281 176.40980469 -86.09726563 176.44460937 -87.11328125 176.48046875 C-89.8125 176.1875 -89.8125 176.1875 -91.45991516 174.92570496 C-93.11896807 172.79365829 -93.17777466 171.75892189 -93.15307617 169.08325195 C-93.15284958 168.26262772 -93.15262299 167.44200348 -93.15238953 166.59651184 C-93.13690567 165.71517075 -93.12142181 164.83382965 -93.10546875 163.92578125 C-93.10122391 163.01998825 -93.09697906 162.11419525 -93.09260559 161.18095398 C-93.07580848 158.28700067 -93.0381545 155.39374294 -93 152.5 C-92.98495449 150.53842151 -92.97126585 148.57683211 -92.95898438 146.61523438 C-92.92590157 141.80572144 -92.87411222 136.99672867 -92.8125 132.1875 C-87.08240397 130.16714123 -83.76474257 130.28564507 -77.8125 131.1875 C-77.8125 126.5675 -77.8125 121.9475 -77.8125 117.1875 C-73.59221101 115.0773555 -68.23256486 115.93878213 -63.8125 117.1875 C-63.82410156 116.18847656 -63.83570312 115.18945312 -63.84765625 114.16015625 C-63.85667969 112.86980469 -63.86570312 111.57945312 -63.875 110.25 C-63.88660156 108.96222656 -63.89820312 107.67445313 -63.91015625 106.34765625 C-63.8125 103.1875 -63.8125 103.1875 -62.8125 102.1875 C-59.71184814 102.02709844 -56.63044283 101.92779098 -53.52734375 101.87109375 C-52.7027063 101.85244263 -51.87806885 101.8337915 -51.02844238 101.8145752 C-47.93574154 101.74606286 -44.84285712 101.68605149 -41.75 101.625 C-34.840625 101.480625 -27.93125 101.33625 -20.8125 101.1875 C-20.4825 77.7575 -20.1525 54.3275 -19.8125 30.1875 C-17.04797967 28.80523984 -14.7663637 29.09224613 -11.6875 29.125 C-10.59179688 29.13402344 -9.49609375 29.14304687 -8.3671875 29.15234375 C-7.10261719 29.16974609 -7.10261719 29.16974609 -5.8125 29.1875 C-5.82297363 28.38006348 -5.83344727 27.57262695 -5.84423828 26.74072266 C-5.88569831 23.09801318 -5.91179438 19.45535325 -5.9375 15.8125 C-5.95425781 14.54148437 -5.97101563 13.27046875 -5.98828125 11.9609375 C-5.99472656 10.74921875 -6.00117187 9.5375 -6.0078125 8.2890625 C-6.01828613 7.16838379 -6.02875977 6.04770508 -6.03955078 4.89306641 C-5.66348459 0.41181313 -4.37436345 0.21513263 0 0 Z " fill="#3E3E3E" transform="translate(114.8125,74.8125)"/>
<path d="M0 0 C19.14 0 38.28 0 58 0 C58 4.95 58 9.9 58 15 C62.62 15 67.24 15 72 15 C72 29.19 72 43.38 72 58 C67.38 58 62.76 58 58 58 C58 48.43 58 38.86 58 29 C53.05 29 48.1 29 43 29 C43 33.62 43 38.24 43 43 C38.38 43 33.76 43 29 43 C29 47.95 29 52.9 29 58 C14.81 58 0.62 58 -14 58 C-14 43.81 -14 29.62 -14 15 C-9.38 15 -4.76 15 0 15 C0 10.05 0 5.1 0 0 Z " fill="#FEFEFE" transform="translate(240,192)"/>
<path d="M0 0 C4.62 0 9.24 0 14 0 C14 37.95 14 75.9 14 115 C9.38 115 4.76 115 0 115 C0 96.19 0 77.38 0 58 C-4.62 58 -9.24 58 -14 58 C-14 72.19 -14 86.38 -14 101 C-21 102 -21 102 -29 101 C-29 91.43 -29 81.86 -29 72 C-33.95 72 -38.9 72 -44 72 C-44 67.05 -44 62.1 -44 57 C-34.43 57 -24.86 57 -15 57 C-15 52.38 -15 47.76 -15 43 C-19.62 43 -24.24 43 -29 43 C-29 38.05 -29 33.1 -29 28 C-24.38 28 -19.76 28 -15 28 C-15 23.38 -15 18.76 -15 14 C-10.05 14 -5.1 14 0 14 C0 9.38 0 4.76 0 0 Z " fill="#C3C3C3" transform="translate(110,207)"/>
<path d="M0 0 C4.95 0 9.9 0 15 0 C15 4.95 15 9.9 15 15 C10.38 15 5.76 15 1 15 C1 29.19 1 43.38 1 58 C20.14 58 39.28 58 59 58 C59 62.62 59 67.24 59 72 C63.62 72 68.24 72 73 72 C73 86.52 73 101.04 73 116 C68.05 116 63.1 116 58 116 C58 106.43 58 96.86 58 87 C53.38 87 48.76 87 44 87 C44 91.62 44 96.24 44 101 C39.05 101 34.1 101 29 101 C29 96.38 29 91.76 29 87 C24.38 87 19.76 87 15 87 C15 82.05 15 77.1 15 72 C10.05 72 5.1 72 0 72 C0 67.38 0 62.76 0 58 C-4.62 58 -9.24 58 -14 58 C-14 43.48 -14 28.96 -14 14 C-9.38 14 -4.76 14 0 14 C0 9.38 0 4.76 0 0 Z " fill="#3F3F3F" transform="translate(225,192)"/>
<path d="M0 0 C4.95 0 9.9 0 15 0 C15 9.57 15 19.14 15 29 C19.62 29 24.24 29 29 29 C29 38.57 29 48.14 29 58 C33.95 58 38.9 58 44 58 C44 62.95 44 67.9 44 73 C58.19 73 72.38 73 87 73 C87 77.62 87 82.24 87 87 C67.86 87 48.72 87 29 87 C29 82.38 29 77.76 29 73 C24.38 73 19.76 73 15 73 C15 63.43 15 53.86 15 44 C10.05 44 5.1 44 0 44 C0 29.48 0 14.96 0 0 Z " fill="#C1C1C1" transform="translate(124,322)"/>
<path d="M0 0 C0.33 0 0.66 0 1 0 C1 4.62 1 9.24 1 14 C5.62 14 10.24 14 15 14 C15 28.52 15 43.04 15 58 C10.05 58 5.1 58 0 58 C0 48.43 0 38.86 0 29 C-4.62 29 -9.24 29 -14 29 C-14 33.62 -14 38.24 -14 43 C-18.95 43 -23.9 43 -29 43 C-29 33.43 -29 23.86 -29 14 C-19.43 14 -9.86 14 0 14 C0 9.38 0 4.76 0 0 Z " fill="#979797" transform="translate(283,250)"/>
<path d="M0 0 C9.9 0 19.8 0 30 0 C30 19.14 30 38.28 30 58 C25.05 58 20.1 58 15 58 C15 48.43 15 38.86 15 29 C10.05 29 5.1 29 0 29 C0 19.43 0 9.86 0 0 Z " fill="#C4C4C4" transform="translate(283,308)"/>
<path d="M0 0 C4.95 0 9.9 0 15 0 C15 4.95 15 9.9 15 15 C10.38 15 5.76 15 1 15 C1 29.19 1 43.38 1 58 C-6 59 -6 59 -14 58 C-14 48.43 -14 38.86 -14 29 C-18.95 29 -23.9 29 -29 29 C-29 24.05 -29 19.1 -29 14 C-19.43 14 -9.86 14 0 14 C0 9.38 0 4.76 0 0 Z " fill="#979797" transform="translate(95,250)"/>
<path d="M0 0 C4.95 0 9.9 0 15 0 C15 9.57 15 19.14 15 29 C19.62 29 24.24 29 29 29 C29 38.57 29 48.14 29 58 C24.38 58 19.76 58 15 58 C15 53.38 15 48.76 15 44 C10.05 44 5.1 44 0 44 C0 29.48 0 14.96 0 0 Z " fill="#C3C3C3" transform="translate(124,322)"/>
<path d="M0 0 C4.95 0 9.9 0 15 0 C15 4.95 15 9.9 15 15 C19.62 15 24.24 15 29 15 C29 24.57 29 34.14 29 44 C19.43 44 9.86 44 0 44 C0 29.48 0 14.96 0 0 Z " fill="#040404" transform="translate(211,105)"/>
<path d="M0 0 C4.95 0 9.9 0 15 0 C15 14.52 15 29.04 15 44 C5.43 44 -4.14 44 -14 44 C-14 34.43 -14 24.86 -14 15 C-9.38 15 -4.76 15 0 15 C0 10.05 0 5.1 0 0 Z " fill="#050505" transform="translate(153,105)"/>
<path d="M0 0 C23.76 0 47.52 0 72 0 C72 4.62 72 9.24 72 14 C48.24 14 24.48 14 0 14 C0 9.38 0 4.76 0 0 Z " fill="#C3C3C3" transform="translate(226,395)"/>
<path d="M0 0 C4.95 0 9.9 0 15 0 C15 4.95 15 9.9 15 15 C10.38 15 5.76 15 1 15 C1 33.81 1 52.62 1 72 C0.67 72 0.34 72 0 72 C0 67.38 0 62.76 0 58 C-4.62 58 -9.24 58 -14 58 C-14 43.48 -14 28.96 -14 14 C-9.38 14 -4.76 14 0 14 C0 9.38 0 4.76 0 0 Z " fill="#3F3F3F" transform="translate(225,192)"/>
<path d="M0 0 C19.14 0 38.28 0 58 0 C58 4.62 58 9.24 58 14 C38.86 14 19.72 14 0 14 C0 9.38 0 4.76 0 0 Z " fill="#3F3F3F" transform="translate(240,178)"/>
<path d="M0 0 C4.62 0 9.24 0 14 0 C14 18.81 14 37.62 14 57 C9.38 57 4.76 57 0 57 C0 38.19 0 19.38 0 0 Z " fill="#3F3F3F" transform="translate(370,323)"/>
<path d="M0 0 C4.62 0 9.24 0 14 0 C14 18.81 14 37.62 14 57 C9.38 57 4.76 57 0 57 C0 38.19 0 19.38 0 0 Z " fill="#3F3F3F" transform="translate(356,265)"/>
<path d="M0 0 C4.95 0 9.9 0 15 0 C15 14.52 15 29.04 15 44 C10.05 44 5.1 44 0 44 C0 29.48 0 14.96 0 0 Z " fill="#959595" transform="translate(341,264)"/>
<path d="M0 0 C14.19 0 28.38 0 43 0 C43 4.95 43 9.9 43 15 C28.81 15 14.62 15 0 15 C0 10.05 0 5.1 0 0 Z " fill="#070707" transform="translate(168,163)"/>
<path d="M0 0 C14.19 0 28.38 0 43 0 C43 4.62 43 9.24 43 14 C28.81 14 14.62 14 0 14 C0 9.38 0 4.76 0 0 Z " fill="#C2C2C2" transform="translate(168,395)"/>
<path d="M0 0 C4.62 0 9.24 0 14 0 C14 14.19 14 28.38 14 43 C9.38 43 4.76 43 0 43 C0 28.81 0 14.62 0 0 Z " fill="#3F3F3F" transform="translate(284,265)"/>
<path d="M0 0 C3.28799432 0.03179878 5.85841383 0.52168277 9.1875 1.1875 C9.1875 10.7575 9.1875 20.3275 9.1875 30.1875 C4.5675 30.5175 -0.0525 30.8475 -4.8125 31.1875 C-5.8025 31.6825 -5.8025 31.6825 -6.8125 32.1875 C-10.7725 31.8575 -14.7325 31.5275 -18.8125 31.1875 C-18.8125 54.9475 -18.8125 78.7075 -18.8125 103.1875 C-33.3325 103.1875 -47.8525 103.1875 -62.8125 103.1875 C-62.8125 102.8575 -62.8125 102.5275 -62.8125 102.1875 C-48.9525 101.8575 -35.0925 101.5275 -20.8125 101.1875 C-20.4825 77.7575 -20.1525 54.3275 -19.8125 30.1875 C-17.04797967 28.80523984 -14.7663637 29.09224613 -11.6875 29.125 C-10.59179688 29.13402344 -9.49609375 29.14304687 -8.3671875 29.15234375 C-7.10261719 29.16974609 -7.10261719 29.16974609 -5.8125 29.1875 C-5.82821045 27.97634521 -5.82821045 27.97634521 -5.84423828 26.74072266 C-5.88569831 23.09801318 -5.91179438 19.45535325 -5.9375 15.8125 C-5.95425781 14.54148437 -5.97101563 13.27046875 -5.98828125 11.9609375 C-5.99794922 10.14335938 -5.99794922 10.14335938 -6.0078125 8.2890625 C-6.02352295 6.60804443 -6.02352295 6.60804443 -6.03955078 4.89306641 C-5.66348459 0.41181313 -4.37436345 0.21513263 0 0 Z " fill="#323232" transform="translate(114.8125,74.8125)"/>
<path d="M0 0 C4.95 0 9.9 0 15 0 C15 9.24 15 18.48 15 28 C76.71 28 138.42 28 202 28 C202 23.38 202 18.76 202 14 C202.33 14 202.66 14 203 14 C203 18.95 203 23.9 203 29 C174.84740635 30.11967645 146.70630251 30.15543556 118.53466797 30.13037109 C112.06321564 30.12468646 105.59180459 30.12804514 99.1203537 30.13382339 C70.73039386 30.15516923 42.37453797 29.97361436 14 29 C14 24.38 14 19.76 14 15 C9.71 15 5.42 15 1 15 C1 19.29 1 23.58 1 28 C0.67 28 0.34 28 0 28 C0 18.76 0 9.52 0 0 Z " fill="#141414" transform="translate(211,395)"/>
<path d="M0 0 C28.71 0 57.42 0 87 0 C87 4.95 87 9.9 87 15 C77.43 15 67.86 15 58 15 C58 10.38 58 5.76 58 1 C38.86 1 19.72 1 0 1 C0 0.67 0 0.34 0 0 Z " fill="#949494" transform="translate(182,47)"/>
<path d="M0 0 C0.33 0 0.66 0 1 0 C1 19.14 1 38.28 1 58 C-3.95 58 -8.9 58 -14 58 C-14 48.43 -14 38.86 -14 29 C-9.38 29 -4.76 29 0 29 C0 19.43 0 9.86 0 0 Z " fill="#C7C7C7" transform="translate(312,308)"/>
<path d="M0 0 C4.95 0 9.9 0 15 0 C15 9.57 15 19.14 15 29 C10.05 29 5.1 29 0 29 C0 19.43 0 9.86 0 0 Z " fill="#959595" transform="translate(370,380)"/>
<path d="M0 0 C4.62 0 9.24 0 14 0 C14 9.57 14 19.14 14 29 C9.38 29 4.76 29 0 29 C0 24.38 0 19.76 0 15 C-4.62 15 -9.24 15 -14 15 C-14 14.67 -14 14.34 -14 14 C-9.38 14 -4.76 14 0 14 C0 9.38 0 4.76 0 0 Z " fill="#C3C3C3" transform="translate(269,279)"/>
<path d="M0 0 C4.62 0 9.24 0 14 0 C14 9.57 14 19.14 14 29 C8 30 8 30 0 29 C0 19.43 0 9.86 0 0 Z " fill="#C1C1C1" transform="translate(81,279)"/>
<path d="M0 0 C9.57 0 19.14 0 29 0 C29 4.62 29 9.24 29 14 C19.43 14 9.86 14 0 14 C0 9.38 0 4.76 0 0 Z " fill="#979797" transform="translate(269,395)"/>
<path d="M0 0 C4.62 0 9.24 0 14 0 C14 9.57 14 19.14 14 29 C9.38 29 4.76 29 0 29 C0 19.43 0 9.86 0 0 Z " fill="#C3C3C3" transform="translate(139,351)"/>
<path d="M0 0 C4.62 0 9.24 0 14 0 C14 9.57 14 19.14 14 29 C9.38 29 4.76 29 0 29 C0 19.43 0 9.86 0 0 Z " fill="#3F3F3F" transform="translate(298,308)"/>
<path d="M0 0 C4.62 0 9.24 0 14 0 C14 9.57 14 19.14 14 29 C9.38 29 4.76 29 0 29 C0 19.43 0 9.86 0 0 Z " fill="#3F3F3F" transform="translate(298,62)"/>
<path d="M0 0 C9.24 0 18.48 0 28 0 C28 4.62 28 9.24 28 14 C18.43 14 8.86 14 -1 14 C-0.67 9.38 -0.34 4.76 0 0 Z " fill="#3F3F3F" transform="translate(154,48)"/>
<path d="M0 0 C4.62 0 9.24 0 14 0 C14 9.24 14 18.48 14 28 C9.38 28 4.76 28 0 28 C0 18.76 0 9.52 0 0 Z " fill="#3F3F3F" transform="translate(125,366)"/>
<path d="M0 0 C9.24 0 18.48 0 28 0 C28 4.62 28 9.24 28 14 C18.76 14 9.52 14 0 14 C0 9.38 0 4.76 0 0 Z " fill="#3F3F3F" transform="translate(125,62)"/>
<path d="M0 0 C0.33 0 0.66 0 1 0 C1 9.57 1 19.14 1 29 C-8.24 29 -17.48 29 -27 29 C-27 43.19 -27 57.38 -27 72 C-29 70 -29 70 -29.22705078 66.00927734 C-29.22673337 64.28479831 -29.21539124 62.56029967 -29.1953125 60.8359375 C-29.1924826 59.92872955 -29.18965271 59.02152161 -29.18673706 58.08682251 C-29.17552153 55.18274877 -29.15041463 52.27898088 -29.125 49.375 C-29.11497197 47.40885861 -29.10584581 45.4427124 -29.09765625 43.4765625 C-29.07557772 38.65092341 -29.04103865 33.8255136 -29 29 C-23.26990397 26.97964123 -19.95224257 27.09814507 -14 28 C-14 23.38 -14 18.76 -14 14 C-9.68839387 11.84419694 -4.49072469 12.87731883 0 14 C0 9.38 0 4.76 0 0 Z " fill="#313131" transform="translate(51,178)"/>
<path d="M0 0 C4.95 0 9.9 0 15 0 C15 4.95 15 9.9 15 15 C10.38 15 5.76 15 1 15 C1 29.19 1 43.38 1 58 C0.67 58 0.34 58 0 58 C0 43.81 0 29.62 0 15 C-9.24 15 -18.48 15 -28 15 C-28 19.62 -28 24.24 -28 29 C-28.33 29 -28.66 29 -29 29 C-29 24.05 -29 19.1 -29 14 C-19.43 14 -9.86 14 0 14 C0 9.38 0 4.76 0 0 Z " fill="#979797" transform="translate(95,250)"/>
<path d="M0 0 C4.95 0 9.9 0 15 0 C15 4.95 15 9.9 15 15 C10.38 15 5.76 15 1 15 C1 33.81 1 52.62 1 72 C0.67 72 0.34 72 0 72 C0 53.19 0 34.38 0 15 C-4.62 15 -9.24 15 -14 15 C-14 14.67 -14 14.34 -14 14 C-9.38 14 -4.76 14 0 14 C0 9.38 0 4.76 0 0 Z " fill="#3F3F3F" transform="translate(225,192)"/>
<path d="M0 0 C0.33 0 0.66 0 1 0 C1 9.57 1 19.14 1 29 C5.62 29 10.24 29 15 29 C15 33.95 15 38.9 15 44 C10.05 44 5.1 44 0 44 C0 29.48 0 14.96 0 0 Z " fill="#929292" transform="translate(124,322)"/>
<path d="M0 0 C5.28 0 10.56 0 16 0 C16 8.91 16 17.82 16 27 C15.67 27 15.34 27 15 27 C15 22.71 15 18.42 15 14 C14.01 14.495 14.01 14.495 13 15 C11.1478437 15.09584979 9.29212847 15.12983606 7.4375 15.125 C6.44621094 15.12757813 5.45492187 15.13015625 4.43359375 15.1328125 C2 15 2 15 1 14 C0.53355123 9.34127094 0.29472371 4.67347603 0 0 Z " fill="#363636" transform="translate(65,279)"/>
<path d="M0 0 C4.95 0 9.9 0 15 0 C15 4.95 15 9.9 15 15 C10.05 15 5.1 15 0 15 C0 10.05 0 5.1 0 0 Z " fill="#C1C1C1" transform="translate(211,380)"/>
<path d="M0 0 C4.95 0 9.9 0 15 0 C15 4.95 15 9.9 15 15 C10.05 15 5.1 15 0 15 C0 10.05 0 5.1 0 0 Z " fill="#969696" transform="translate(312,105)"/>
<path d="M0 0 C4.95 0 9.9 0 15 0 C15 4.62 15 9.24 15 14 C10.05 14 5.1 14 0 14 C0 9.38 0 4.76 0 0 Z " fill="#414141" transform="translate(211,395)"/>
<path d="M0 0 C4.95 0 9.9 0 15 0 C15 4.62 15 9.24 15 14 C10.05 14 5.1 14 0 14 C0 9.38 0 4.76 0 0 Z " fill="#959595" transform="translate(153,395)"/>
<path d="M0 0 C4.62 0 9.24 0 14 0 C14 4.95 14 9.9 14 15 C9.38 15 4.76 15 0 15 C0 10.05 0 5.1 0 0 Z " fill="#949494" transform="translate(139,380)"/>
<path d="M0 0 C4.62 0 9.24 0 14 0 C14 4.95 14 9.9 14 15 C9.38 15 4.76 15 0 15 C0 10.05 0 5.1 0 0 Z " fill="#969696" transform="translate(356,322)"/>
<path d="M0 0 C4.62 0 9.24 0 14 0 C14 4.95 14 9.9 14 15 C9.38 15 4.76 15 0 15 C0 10.05 0 5.1 0 0 Z " fill="#979797" transform="translate(327,163)"/>
<path d="M0 0 C4.95 0 9.9 0 15 0 C15 4.62 15 9.24 15 14 C10.05 14 5.1 14 0 14 C0 9.38 0 4.76 0 0 Z " fill="#989898" transform="translate(283,62)"/>
<path d="M0 0 C4.62 0 9.24 0 14 0 C14 4.62 14 9.24 14 14 C9.38 14 4.76 14 0 14 C0 9.38 0 4.76 0 0 Z " fill="#969696" transform="translate(226,395)"/>
<path d="M0 0 C4.62 0 9.24 0 14 0 C14 4.62 14 9.24 14 14 C9.38 14 4.76 14 0 14 C0 9.38 0 4.76 0 0 Z " fill="#979797" transform="translate(197,395)"/>
<path d="M0 0 C4.62 0 9.24 0 14 0 C14 4.62 14 9.24 14 14 C9.38 14 4.76 14 0 14 C0 9.38 0 4.76 0 0 Z " fill="#979797" transform="translate(356,366)"/>
<path d="M0 0 C4.62 0 9.24 0 14 0 C14 4.62 14 9.24 14 14 C9.38 14 4.76 14 0 14 C0 9.38 0 4.76 0 0 Z " fill="#969696" transform="translate(298,337)"/>
<path d="M0 0 C4.62 0 9.24 0 14 0 C14 4.62 14 9.24 14 14 C9.38 14 4.76 14 0 14 C0 9.38 0 4.76 0 0 Z " fill="#969696" transform="translate(284,308)"/>
<path d="M0 0 C4.62 0 9.24 0 14 0 C14 4.62 14 9.24 14 14 C9.38 14 4.76 14 0 14 C0 9.38 0 4.76 0 0 Z " fill="#969696" transform="translate(110,308)"/>
<path d="M0 0 C4.62 0 9.24 0 14 0 C14 4.62 14 9.24 14 14 C9.38 14 4.76 14 0 14 C0 9.38 0 4.76 0 0 Z " fill="#3F3F3F" transform="translate(255,279)"/>
<path d="M0 0 C4.62 0 9.24 0 14 0 C14 4.62 14 9.24 14 14 C9.38 14 4.76 14 0 14 C0 9.38 0 4.76 0 0 Z " fill="#C2C2C2" transform="translate(255,265)"/>
<path d="M0 0 C4.62 0 9.24 0 14 0 C14 4.62 14 9.24 14 14 C9.38 14 4.76 14 0 14 C0 9.38 0 4.76 0 0 Z " fill="#C2C2C2" transform="translate(67,265)"/>
<path d="M0 0 C4.62 0 9.24 0 14 0 C14 4.62 14 9.24 14 14 C9.38 14 4.76 14 0 14 C0 9.38 0 4.76 0 0 Z " fill="#3F3F3F" transform="translate(298,192)"/>
<path d="M0 0 C4.62 0 9.24 0 14 0 C14 4.62 14 9.24 14 14 C9.38 14 4.76 14 0 14 C0 9.38 0 4.76 0 0 Z " fill="#979797" transform="translate(298,91)"/>
<path d="M0 0 C0.33 0 0.66 0 1 0 C1 4.62 1 9.24 1 14 C5.62 14 10.24 14 15 14 C15 14.33 15 14.66 15 15 C10.38 15 5.76 15 1 15 C1 29.19 1 43.38 1 58 C0.67 58 0.34 58 0 58 C0 43.81 0 29.62 0 15 C-9.24 15 -18.48 15 -28 15 C-28 24.24 -28 33.48 -28 43 C-28.33 43 -28.66 43 -29 43 C-29 33.43 -29 23.86 -29 14 C-19.43 14 -9.86 14 0 14 C0 9.38 0 4.76 0 0 Z " fill="#7E7E7E" transform="translate(283,250)"/>
<path d="M0 0 C0.33 0 0.66 0 1 0 C1 4.62 1 9.24 1 14 C5.62 14 10.24 14 15 14 C15 14.33 15 14.66 15 15 C10.38 15 5.76 15 1 15 C1 29.19 1 43.38 1 58 C0.67 58 0.34 58 0 58 C0 43.81 0 29.62 0 15 C-9.24 15 -18.48 15 -28 15 C-28 19.62 -28 24.24 -28 29 C-28.33 29 -28.66 29 -29 29 C-29 24.05 -29 19.1 -29 14 C-19.43 14 -9.86 14 0 14 C0 9.38 0 4.76 0 0 Z " fill="#757575" transform="translate(95,250)"/>
<path d="M0 0 C0.33 0 0.66 0 1 0 C1 4.62 1 9.24 1 14 C5.62 14 10.24 14 15 14 C15 14.33 15 14.66 15 15 C10.38 15 5.76 15 1 15 C1 33.81 1 52.62 1 72 C0.67 72 0.34 72 0 72 C0 53.19 0 34.38 0 15 C-4.62 15 -9.24 15 -14 15 C-14 14.67 -14 14.34 -14 14 C-9.38 14 -4.76 14 0 14 C0 9.38 0 4.76 0 0 Z " fill="#9B9B9B" transform="translate(225,192)"/>
</svg>
